<?xml version="1.0" standalone="no"?>
<!DOCTYPE svg PUBLIC "-//W3C//DTD SVG 20010904//EN"
 "http://www.w3.org/TR/2001/REC-SVG-20010904/DTD/svg10.dtd">
<svg version="1.0" xmlns="http://www.w3.org/2000/svg"
 width="37.000000pt" height="45.000000pt" viewBox="0 0 297.000000 360.000000"
 preserveAspectRatio="xMidYMid meet">

<g transform="translate(0.000000,360.000000) scale(0.100000,-0.100000)"
fill="#000000" stroke="none">
<path d="M1125 3565 c-201 -70 -332 -166 -398 -292 -19 -38 -39 -86 -42 -108
-13 -70 -21 -75 -44 -25 -22 49 -27 123 -10 167 10 27 9 26 -30 -11 -70 -69
-131 -211 -131 -309 0 -28 -3 -36 -12 -31 -9 5 -9 2 1 -9 22 -28 28 -20 34 49
4 37 17 87 29 113 l22 46 12 -80 c6 -44 10 -82 8 -84 -2 -2 -10 2 -19 9 -13
11 -15 6 -15 -38 0 -28 5 -63 10 -78 13 -33 5 -42 -20 -26 -24 15 -26 1 -4
-32 15 -23 14 -24 -15 -31 -38 -8 -41 -25 -3 -25 15 0 44 -3 65 -6 31 -6 37
-4 37 11 0 14 7 16 35 13 19 -2 35 0 35 4 0 4 -4 8 -8 8 -11 0 -72 81 -72 97
0 8 20 -1 50 -23 l50 -36 -20 43 c-22 51 -19 60 13 32 12 -11 38 -28 57 -38
19 -9 50 -31 69 -49 26 -23 32 -26 26 -11 -22 58 -33 105 -25 110 5 3 11 1 15
-5 16 -26 22 -5 9 37 -8 25 -14 80 -14 122 0 82 12 120 24 79 6 -18 10 -10 21
43 7 37 23 85 35 109 23 45 92 125 122 141 18 9 18 6 12 -69 -6 -72 -4 -84 16
-121 l24 -41 28 53 c32 60 83 109 150 143 51 26 196 60 297 70 l66 7 -42 -40
c-24 -22 -43 -42 -43 -44 0 -3 44 -3 98 -1 l97 3 -33 -26 c-17 -15 -36 -34
-41 -44 -9 -17 -7 -17 42 0 29 10 67 18 86 19 29 0 32 -2 21 -15 -11 -13 -7
-15 30 -15 l43 0 -27 -27 c-14 -14 -25 -27 -23 -29 2 -2 21 1 43 7 60 17 161
6 219 -24 39 -20 46 -27 33 -32 -35 -14 -17 -25 37 -25 97 0 213 -54 315 -146
45 -41 52 -36 17 10 -40 53 -42 60 -18 47 34 -19 25 0 -26 51 -26 26 -41 48
-33 48 9 0 6 7 -9 24 -26 28 -121 76 -151 76 -12 0 -18 4 -15 10 8 13 -47 36
-135 59 -37 9 -65 21 -63 27 4 12 -150 40 -282 50 l-80 7 53 12 c29 7 55 14
57 17 10 10 -197 38 -277 38 -154 0 -297 -47 -380 -123 -32 -29 -38 -32 -38
-16 0 37 30 90 81 144 29 30 50 57 48 59 -2 2 -44 -11 -94 -29z"/>
<path d="M1383 3184 c-24 -14 -43 -29 -43 -33 0 -15 -43 -52 -55 -47 -8 3 -21
-13 -34 -44 -12 -27 -21 -51 -21 -54 0 -3 27 14 61 39 107 79 215 96 310 48
95 -49 143 -145 142 -283 -1 -100 -27 -170 -70 -190 -26 -12 -30 -19 -26 -41
6 -30 -38 -89 -66 -89 -40 0 -58 70 -23 89 16 8 18 18 12 60 -6 46 5 110 34
199 5 16 3 22 -8 22 -8 0 -16 11 -18 26 -3 24 -7 20 -46 -41 -24 -37 -46 -65
-49 -62 -3 4 -13 -8 -22 -25 -9 -17 -20 -31 -26 -30 -5 1 -18 -14 -27 -33 -10
-19 -35 -46 -55 -61 -21 -16 -41 -30 -45 -33 -4 -4 14 -4 41 -3 40 3 53 -1 79
-23 33 -28 41 -62 20 -83 -9 -9 -8 -12 7 -12 34 0 96 -21 90 -30 -3 -5 4 -12
15 -15 32 -10 135 -100 159 -138 36 -58 38 -165 5 -251 -3 -8 4 -16 15 -19 27
-7 41 -45 41 -110 0 -29 3 -63 7 -76 6 -23 6 -23 19 7 7 17 24 38 38 47 51 33
101 -9 147 -123 l19 -47 -6 60 c-5 56 -28 199 -41 255 l-6 25 33 -30 33 -30
-6 43 c-3 23 -1 42 3 42 18 0 85 -89 102 -136 l18 -49 -6 88 c-3 48 -13 119
-23 157 -10 39 -16 70 -14 70 3 0 13 -5 24 -10 24 -13 24 -11 -1 75 -11 38
-20 76 -20 83 0 17 49 8 104 -20 l39 -20 -46 59 c-26 32 -87 108 -136 168 -49
61 -86 111 -81 113 5 2 22 -4 39 -13 17 -8 31 -13 31 -11 0 3 -11 30 -24 60
-30 69 -97 167 -154 229 -41 43 -43 47 -22 47 19 0 14 7 -31 40 -30 22 -75 50
-100 63 -25 12 -63 37 -84 55 -49 40 -127 59 -184 44 -42 -10 -50 -5 -29 16
18 18 7 14 -39 -14z"/>
<path d="M2210 3057 c0 -3 28 -14 63 -27 108 -39 231 -108 322 -181 87 -70 88
-70 81 -39 -5 27 -4 31 8 21 8 -7 24 -31 35 -54 27 -53 27 -27 1 31 -18 39
-127 158 -137 148 -2 -2 6 -21 19 -41 l22 -38 -59 40 c-83 56 -149 88 -230
111 -83 24 -125 34 -125 29z"/>
<path d="M416 3009 c-3 -17 -6 -63 -6 -102 l0 -70 -47 7 c-25 3 -66 17 -91 31
-24 14 -46 25 -48 25 -10 0 -2 -82 12 -129 8 -29 13 -55 11 -57 -4 -5 -81 10
-110 22 -26 10 -21 -15 18 -94 33 -64 75 -113 122 -141 16 -9 16 -12 3 -21
-13 -8 -10 -14 18 -39 39 -37 42 -72 7 -113 -14 -16 -25 -35 -25 -42 0 -7 -9
-21 -20 -31 -29 -26 -25 -52 15 -96 61 -68 48 -125 -61 -267 -37 -48 -72 -93
-77 -99 -5 -7 -7 -13 -3 -13 3 0 43 46 88 103 123 154 140 206 93 282 -35 57
-34 112 5 160 33 42 33 69 -1 118 l-20 27 27 0 27 0 -33 23 c-34 23 -104 116
-115 153 -5 18 -2 21 18 17 36 -7 51 19 44 80 -3 28 -8 60 -12 69 -7 17 -4 17
35 3 75 -26 111 -19 129 26 9 24 15 199 7 199 -2 0 -6 -14 -10 -31z"/>
<path d="M2527 2705 c57 -53 58 -54 29 -55 -29 0 -29 0 -10 -22 l19 -21 -35 7
-34 6 57 -50 c63 -57 160 -195 175 -252 l10 -36 -35 5 c-34 6 -36 5 -30 -20 4
-14 10 -32 13 -41 6 -14 1 -16 -37 -10 l-43 7 42 -38 c51 -46 158 -205 138
-205 -2 0 -30 16 -62 35 -54 33 -153 75 -174 75 -6 0 18 -28 53 -62 48 -47 69
-78 85 -121 33 -88 33 -89 -40 -81 l-63 6 40 -29 c46 -35 108 -134 133 -213
18 -60 21 -228 5 -310 l-9 -45 -29 44 -30 45 -7 -95 c-11 -156 -74 -336 -201
-569 -41 -75 -75 -123 -122 -170 l-65 -65 16 45 c19 51 33 307 17 297 -5 -4
-18 -41 -28 -84 -20 -90 -66 -196 -117 -271 l-35 -52 -11 39 c-7 21 -18 44
-26 50 -11 9 -16 -1 -26 -51 -19 -87 -81 -207 -143 -274 -33 -37 -43 -53 -28
-45 39 22 112 93 147 146 l34 50 0 -41 c0 -22 -6 -62 -14 -87 -8 -26 -13 -47
-11 -47 1 0 36 50 76 112 79 119 85 121 77 22 -2 -24 -2 -44 -2 -44 1 0 14 19
28 43 14 23 57 78 97 122 95 107 150 179 215 281 l53 85 3 -62 3 -63 44 119
c24 66 58 147 76 180 18 33 40 84 50 113 9 28 18 52 20 52 2 0 1 -43 -2 -95
-3 -52 -3 -95 0 -95 10 0 64 179 78 260 8 43 13 137 13 220 -1 152 -17 245
-68 415 l-25 80 39 -43 c21 -23 48 -61 59 -85 l22 -42 -5 93 c-4 76 -13 116
-50 225 -25 72 -46 136 -46 141 0 5 11 -1 25 -14 28 -26 30 -24 15 15 -8 21
-7 26 2 22 52 -21 50 -24 23 49 -14 38 -46 106 -70 151 -24 47 -39 85 -34 89
19 11 88 -8 133 -37 25 -15 46 -25 46 -20 0 19 -70 111 -139 181 -83 83 -166
133 -285 169 -37 12 -70 21 -73 21 -2 0 22 -25 54 -55z"/>
<path d="M1071 2579 c-6 -20 -23 -42 -37 -49 l-25 -14 25 -13 c17 -9 26 -22
26 -37 0 -19 7 -25 33 -30 19 -3 43 -16 55 -29 25 -26 52 -98 52 -136 0 -20 7
-12 33 38 34 67 57 88 57 52 0 -25 33 -61 56 -61 12 0 10 7 -10 31 -14 17 -26
40 -26 52 1 29 23 57 44 57 24 0 15 22 -15 37 -37 19 -79 15 -134 -12 -27 -13
-60 -25 -71 -25 -39 0 -46 65 -14 118 l20 32 -24 0 c-14 0 -26 6 -29 13 -2 6
-9 -4 -16 -24z"/>
<path d="M628 2455 c-38 -34 -45 -57 -39 -125 3 -35 21 -63 19 -30 -3 53 2
111 10 106 4 -2 17 15 28 40 11 24 20 44 20 44 -1 0 -18 -16 -38 -35z"/>
<path d="M498 2444 c-98 -59 -113 -92 -131 -288 -7 -74 11 -33 38 84 24 107
38 130 114 191 77 61 68 67 -21 13z"/>
<path d="M663 2292 c-17 -18 -23 -37 -23 -71 -1 -25 -9 -69 -19 -98 l-18 -52
38 43 c21 24 52 49 69 56 l31 13 -23 11 c-13 7 -24 22 -25 36 -3 24 -2 24 6 4
5 -12 14 -25 20 -28 14 -9 58 13 99 51 47 44 34 56 -60 59 -65 1 -74 -1 -95
-24z m97 -27 c0 -8 -7 -15 -15 -15 -8 0 -15 7 -15 15 0 8 7 15 15 15 8 0 15
-7 15 -15z"/>
<path d="M1591 2226 c15 -55 3 -136 -31 -204 -35 -69 -66 -101 -140 -141 l-55
-31 40 0 c22 0 52 7 68 14 15 8 27 12 27 8 0 -16 -92 -122 -136 -157 -67 -53
-73 -59 -44 -45 l25 13 -26 -29 c-28 -31 -69 -94 -69 -107 0 -4 13 7 29 26 17
18 76 58 132 88 67 36 115 69 142 99 24 27 37 37 34 25 -14 -48 -47 -218 -44
-221 6 -6 103 205 147 318 21 54 34 98 29 98 -5 0 -32 -11 -59 -25 -28 -14
-50 -24 -50 -22 0 1 9 20 20 41 10 21 22 58 26 81 8 54 -17 144 -51 182 l-24
28 10 -39z"/>
<path d="M769 2144 c-13 -15 -38 -33 -55 -40 -18 -7 -43 -27 -57 -43 -13 -16
-27 -27 -31 -24 -11 12 -18 -27 -8 -54 l9 -28 12 41 c12 45 38 72 96 102 22
11 46 30 53 42 19 32 9 34 -19 4z"/>
<path d="M1696 1662 c-60 -103 -119 -175 -204 -249 -42 -37 -112 -103 -154
-146 -43 -42 -78 -72 -78 -67 0 19 37 84 93 162 31 42 63 92 72 110 l16 33
-28 -31 c-15 -17 -48 -46 -73 -64 -117 -88 -324 -294 -262 -261 l23 12 -17
-33 c-9 -18 -32 -76 -51 -128 -27 -76 -32 -87 -29 -52 6 57 -9 45 -50 -42 -40
-84 -42 -66 -10 69 33 140 37 165 26 165 -6 0 -10 -6 -10 -13 0 -20 -78 -119
-82 -103 -5 21 -133 -66 -158 -106 -11 -18 -20 -49 -20 -68 0 -26 -3 -31 -10
-20 -5 8 -10 29 -10 45 l-1 30 -34 -37 c-19 -21 -35 -47 -35 -59 0 -14 -5 -19
-13 -16 -16 6 -47 -42 -57 -87 l-7 -31 -34 54 c-24 39 -35 49 -37 36 -3 -14
-14 -8 -53 31 -42 41 -49 45 -49 27 0 -41 -17 -32 -53 30 -45 75 -47 70 -7
-15 16 -34 30 -75 30 -90 0 -16 5 -28 10 -28 6 0 10 5 10 11 0 6 12 9 28 7 21
-2 32 -13 50 -50 13 -26 26 -66 29 -88 6 -42 12 -47 30 -29 6 6 21 9 34 7 31
-4 61 -65 67 -136 l5 -54 14 30 c18 37 33 44 63 29 53 -28 76 -136 46 -217 -7
-19 -17 -44 -21 -55 -4 -11 9 3 30 30 47 63 135 240 135 272 0 12 4 23 8 23
13 0 79 -73 95 -105 43 -85 46 -242 8 -333 l-21 -47 61 65 c33 36 83 94 110
130 51 67 139 230 139 258 0 26 16 1 34 -52 39 -119 121 -206 252 -268 45 -21
85 -38 88 -38 4 0 -7 17 -23 38 -42 52 -68 117 -81 200 -22 141 25 287 134
416 61 72 61 82 -1 37 -134 -97 -227 -357 -183 -510 5 -19 8 -36 6 -38 -2 -2
-26 15 -55 37 -43 34 -59 57 -102 148 -29 59 -59 129 -69 157 l-17 49 -6 -54
c-8 -77 -69 -220 -135 -319 l-57 -85 -6 75 c-4 46 -24 127 -53 217 -51 160
-54 183 -29 280 l17 67 9 -52 c8 -52 45 -103 73 -103 10 0 10 6 -2 28 -21 41
-17 94 20 243 37 152 92 270 157 341 l39 43 -26 -57 c-29 -65 -41 -169 -36
-292 l4 -79 26 80 c36 107 79 173 197 309 55 63 126 145 158 182 51 58 157
245 146 257 -2 2 -22 -27 -43 -63z"/>
<path d="M72 1698 c-18 -24 -53 -99 -50 -109 2 -5 18 20 36 56 31 63 35 78 14
53z"/>
<path d="M2332 1599 c-17 -141 -37 -218 -82 -314 -62 -132 -65 -132 -65 -8 -1
60 -7 132 -14 162 l-14 54 -17 -69 c-22 -85 -58 -168 -101 -231 -39 -59 -120
-155 -125 -150 -2 2 8 48 22 103 29 110 42 309 29 431 l-8 68 -28 -110 c-48
-182 -83 -235 -254 -382 -174 -149 -254 -255 -269 -358 -6 -40 -6 -40 15 12
33 81 104 160 234 261 66 50 148 120 183 154 l63 61 -7 -44 c-3 -24 -24 -111
-44 -194 -21 -82 -37 -151 -35 -153 2 -2 41 34 87 80 96 96 164 198 215 325
20 48 38 90 41 93 2 3 2 -38 -1 -90 -7 -107 -31 -196 -87 -317 -61 -132 -58
-134 33 -23 164 201 229 342 247 532 5 56 6 128 2 158 l-7 55 -13 -106z"/>
<path d="M271 1598 c-37 -35 -47 -40 -76 -35 -24 4 -46 -2 -80 -19 -56 -30
-87 -28 -95 6 l-6 25 -7 -25 c-12 -43 -8 -63 16 -89 13 -15 29 -44 35 -67 11
-39 72 -114 93 -114 6 0 -6 15 -25 34 -32 30 -66 89 -66 116 0 20 40 9 75 -21
41 -37 60 -68 69 -121 4 -21 18 -51 31 -67 14 -16 25 -36 25 -44 0 -29 -23
-31 -47 -3 -18 21 -23 39 -23 84 -1 46 -3 53 -11 38 -6 -10 -9 -41 -7 -68 6
-58 42 -102 85 -103 17 -1 32 -10 38 -22 8 -15 15 -18 30 -12 34 13 92 10 105
-6 9 -10 17 -12 30 -5 9 5 20 7 23 4 3 -3 16 2 30 10 13 9 39 16 58 16 76 -2
180 20 230 46 48 27 119 94 119 113 0 24 -44 21 -103 -8 -158 -77 -378 -112
-473 -76 -52 20 -89 64 -102 123 -14 58 -2 100 52 183 74 116 59 183 -23 107z"/>
<path d="M665 1460 c3 -5 8 -10 11 -10 2 0 4 5 4 10 0 6 -5 10 -11 10 -5 0 -7
-4 -4 -10z"/>
<path d="M610 1440 c0 -5 5 -10 10 -10 6 0 10 5 10 10 0 6 -4 10 -10 10 -5 0
-10 -4 -10 -10z"/>
<path d="M556 1433 c-11 -11 -6 -23 9 -23 8 0 15 4 15 9 0 13 -16 22 -24 14z"/>
<path d="M484 1415 c-7 -18 3 -35 21 -35 18 0 26 25 12 39 -15 15 -27 14 -33
-4z"/>
<path d="M680 1400 c-19 -11 -31 -19 -27 -20 12 0 77 28 77 34 0 10 -14 6 -50
-14z"/>
<path d="M430 1390 c0 -5 5 -10 10 -10 6 0 10 5 10 10 0 6 -4 10 -10 10 -5 0
-10 -4 -10 -10z"/>
<path d="M520 1330 c0 -5 5 -10 10 -10 6 0 10 5 10 10 0 6 -4 10 -10 10 -5 0
-10 -4 -10 -10z"/>
<path d="M470 1314 c0 -8 5 -12 10 -9 6 4 8 11 5 16 -9 14 -15 11 -15 -7z"/>
<path d="M550 1280 c0 -5 5 -10 10 -10 6 0 10 5 10 10 0 6 -4 10 -10 10 -5 0
-10 -4 -10 -10z"/>
</g>
</svg>
